<svg xmlns="http://www.w3.org/2000/svg" fill="none" viewBox="-0.785 -0.785 22 22" height="22" width="22"><g id="cog--work-loading-cog-gear-settings-machine"><path id="Vector" stroke="#222" stroke-linecap="round" stroke-linejoin="round" d="M17.231245714285713 11.275900714285715c0 0.07296428571428572 0.024807857142857145 0.14592857142857144 0.0700457142857143 0.2043l0.9733435714285715 1.2258a1.4009142857142858 1.4009142857142858 0 0 1 0.11966142857142857 1.5760285714285716l-0.57204 0.9864771428571429a1.4009142857142858 1.4009142857142858 0 0 1 -1.4228035714285714 0.6858642857142857l-1.5512207142857142 -0.2334857142857143a0.3356357142857143 0.3356357142857143 0 0 0 -0.21159642857142855 0.03940071428571429l-1.8387 1.0609007142857143a0.3327171428571429 0.3327171428571429 0 0 0 -0.1400914285714286 0.16344l-0.57204 1.4592857142857143a1.4009142857142858 1.4009142857142858 0 0 1 -1.3031421428571428 0.8916235714285714h-1.1411614285714287a1.4009142857142858 1.4009142857142858 0 0 1 -1.3031421428571428 -0.8901642857142857l-0.57204 -1.4592857142857143a0.3327171428571429 0.3327171428571429 0 0 0 -0.1400914285714286 -0.16489928571428572L5.7889864285714285 15.760285714285715a0.3356357142857143 0.3356357142857143 0 0 0 -0.21159642857142855 -0.04086l-1.5512207142857142 0.23640428571428573a1.4009142857142858 1.4009142857142858 0 0 1 -1.424262857142857 -0.6858642857142857l-0.5691214285714286 -0.9879364285714286a1.4009142857142858 1.4009142857142858 0 0 1 0.11674285714285715 -1.5760285714285716l0.9777214285714286 -1.2258a0.3254207142857143 0.3254207142857143 0 0 0 0.07296428571428572 -0.2043V9.154099285714285c0 -0.07296428571428572 -0.026267142857142857 -0.14592857142857144 -0.07296428571428572 -0.2043l-0.9777214285714286 -1.2258a1.4009142857142858 1.4009142857142858 0 0 1 -0.11674285714285715 -1.5760285714285716l0.5691214285714286 -0.9864771428571429a1.4009142857142858 1.4009142857142858 0 0 1 1.424262857142857 -0.6858642857142857l1.5468428571428572 0.2334857142857143a0.3356357142857143 0.3356357142857143 0 0 0 0.21159642857142855 -0.03940071428571429l1.8416185714285715 -1.0652785714285715a0.3341764285714286 0.3341764285714286 0 0 0 0.1400914285714286 -0.16489928571428572l0.5749585714285714 -1.4534485714285714A1.4009142857142858 1.4009142857142858 0 0 1 9.645878571428572 1.0944642857142857h1.14408a1.4009142857142858 1.4009142857142858 0 0 1 1.3031421428571428 0.8901642857142857l0.57204 1.454907857142857c0.026267142857142857 0.071505 0.07588285714285714 0.13133571428571428 0.1400914285714286 0.16927714285714288l1.8387 1.0609007142857143a0.3356357142857143 0.3356357142857143 0 0 0 0.21159642857142855 0.04086l1.5497614285714287 -0.23640428571428573a1.4009142857142858 1.4009142857142858 0 0 1 1.424262857142857 0.6858642857142857l0.5705807142857143 0.9879364285714286a1.4009142857142858 1.4009142857142858 0 0 1 -0.11820214285714287 1.5760285714285716l-0.9777214285714286 1.2258a0.3254207142857143 0.3254207142857143 0 0 0 -0.071505 0.2043v2.1218014285714286Z" stroke-width="1.57"></path><path id="Vector_2" stroke="#222" stroke-linecap="round" stroke-linejoin="round" d="M10.215 13.127734285714286c1.863507857142857 0 2.912734285714286 -1.0492264285714286 2.912734285714286 -2.912734285714286 0 -1.863507857142857 -1.0492264285714286 -2.912734285714286 -2.912734285714286 -2.912734285714286 -1.863507857142857 0 -2.912734285714286 1.0492264285714286 -2.912734285714286 2.912734285714286 0 1.863507857142857 1.0492264285714286 2.912734285714286 2.912734285714286 2.912734285714286Z" stroke-width="1.57"></path></g></svg>